solid CatFlap
facet normal -7.419355899772083e-16 -1.0 -1.9646365272320328e-15
  outer loop
    vertex -168.45042833995103 -194.25341862813207 51.925981334656505
    vertex -190.6504283399511 -194.25341862813204 46.62598133465664
    vertex -168.45042833995103 -194.25341862813207 46.62598133465651
  endloop
endfacet
facet normal -7.419355899772083e-16 -1.0 -1.9646365272320328e-15
  outer loop
    vertex -190.6504283399511 -194.25341862813204 46.62598133465664
    vertex -168.45042833995103 -194.25341862813207 51.925981334656505
    vertex -190.65042833995108 -194.25341862813207 51.92598133465653
  endloop
endfacet
facet normal 1.0 0.0 0.0
  outer loop
    vertex -168.45042833995103 -194.25341862813207 46.62598133465651
    vertex -168.45042833995103 -191.1924659124588 47.77598133465664
    vertex -168.45042833995103 -194.25341862813207 51.925981334656505
  endloop
endfacet
facet normal 1.0 0.0 0.0
  outer loop
    vertex -168.45042833995103 -191.1924659124588 47.77598133465664
    vertex -168.45042833995103 -194.25341862813207 46.62598133465651
    vertex -168.45042833995103 -187.8534186281321 46.62598133465651
  endloop
endfacet
facet normal 1.0 0.0 0.0
  outer loop
    vertex -168.45042833995103 -191.1924659124588 47.77598133465664
    vertex -168.45042833995103 -187.8534186281321 46.62598133465651
    vertex -168.45042833995103 -184.1924659124588 47.775981334656635
  endloop
endfacet
facet normal 1.0 0.0 0.0
  outer loop
    vertex -168.45042833995103 -184.1924659124588 47.775981334656635
    vertex -168.45042833995103 -187.8534186281321 46.62598133465651
    vertex -168.45042833995103 -181.4534186281321 46.6259813346565
  endloop
endfacet
facet normal 1.0 0.0 0.0
  outer loop
    vertex -168.45042833995103 -184.1924659124588 47.775981334656635
    vertex -168.45042833995103 -181.4534186281321 46.6259813346565
    vertex -168.45042833995103 -184.1924659124588 49.77598133465663
  endloop
endfacet
facet normal 1.0 0.0 0.0
  outer loop
    vertex -168.45042833995103 -194.25341862813207 51.925981334656505
    vertex -168.45042833995103 -191.19246591245877 49.77598133465664
    vertex -168.45042833995103 -181.4534186281321 51.92598133465653
  endloop
endfacet
facet normal 1.0 0.0 0.0
  outer loop
    vertex -168.45042833995103 -191.19246591245877 49.77598133465664
    vertex -168.45042833995103 -194.25341862813207 51.925981334656505
    vertex -168.45042833995103 -191.1924659124588 47.77598133465664
  endloop
endfacet
facet normal 1.0 0.0 0.0
  outer loop
    vertex -168.45042833995103 -181.4534186281321 51.92598133465653
    vertex -168.45042833995103 -191.19246591245877 49.77598133465664
    vertex -168.45042833995103 -184.1924659124588 49.77598133465663
  endloop
endfacet
facet normal 1.0 0.0 0.0
  outer loop
    vertex -168.45042833995103 -181.4534186281321 51.92598133465653
    vertex -168.45042833995103 -184.1924659124588 49.77598133465663
    vertex -168.45042833995103 -181.4534186281321 46.6259813346565
  endloop
endfacet
facet normal -3.6490933147123433e-16 -1.5448549938107103e-15 1.0
  outer loop
    vertex -190.65042833995108 -194.25341862813207 51.92598133465653
    vertex -168.45042833995103 -181.4534186281321 51.92598133465653
    vertex -190.65042833995116 -181.4534186281321 51.925981334656555
  endloop
endfacet
facet normal -3.6490933147123433e-16 -1.5448549938107103e-15 1.0
  outer loop
    vertex -168.45042833995103 -181.4534186281321 51.92598133465653
    vertex -190.65042833995108 -194.25341862813207 51.92598133465653
    vertex -168.45042833995103 -194.25341862813207 51.925981334656505
  endloop
endfacet
facet normal -2.27229420363332e-15 1.0 -2.6716510571136304e-14
  outer loop
    vertex -190.65042833995116 -181.4534186281321 51.925981334656555
    vertex -168.45042833995103 -181.4534186281321 46.6259813346565
    vertex -190.65042833995116 -181.45341862813225 46.625981334656494
  endloop
endfacet
facet normal -2.27229420363332e-15 1.0 -2.6716510571136304e-14
  outer loop
    vertex -168.45042833995103 -181.4534186281321 46.6259813346565
    vertex -190.65042833995116 -181.4534186281321 51.925981334656555
    vertex -168.45042833995103 -181.4534186281321 51.92598133465653
  endloop
endfacet
facet normal 0.0 -1.6114094185988067e-15 -1.0
  outer loop
    vertex -168.45042833995103 -184.1924659124588 49.77598133465663
    vertex -190.65042833995108 -191.19246591245877 49.775981334656656
    vertex -190.65042833995108 -184.1924659124588 49.77598133465665
  endloop
endfacet
facet normal 0.0 -1.6114094185988067e-15 -1.0
  outer loop
    vertex -190.65042833995108 -191.19246591245877 49.775981334656656
    vertex -168.45042833995103 -184.1924659124588 49.77598133465663
    vertex -168.45042833995103 -191.19246591245877 49.77598133465664
  endloop
endfacet
facet normal -3.5140503838830557e-15 -7.028989701938314e-15 -1.0
  outer loop
    vertex -172.0004283399511 -182.43689161862355 44.225981334656495
    vertex -178.35042833995112 -193.2699456376407 44.22598133465661
    vertex -178.35042833995118 -182.4368916186236 44.22598133465648
  endloop
endfacet
facet normal -3.5140503838830557e-15 -7.028989701938314e-15 -1.0
  outer loop
    vertex -178.35042833995112 -193.2699456376407 44.22598133465661
    vertex -172.0004283399511 -182.43689161862355 44.225981334656495
    vertex -172.0004283399511 -193.2699456376407 44.22598133465655
  endloop
endfacet
facet normal -3.5140503838830557e-15 -7.028989701938314e-15 -1.0
  outer loop
    vertex -172.0004283399511 -193.2699456376407 44.22598133465655
    vertex -172.0004283399511 -182.43689161862355 44.225981334656495
    vertex -171.00339707160708 -182.99088342486692 44.225981334656495
  endloop
endfacet
facet normal -3.5140503838830557e-15 -7.028989701938314e-15 -1.0
  outer loop
    vertex -172.0004283399511 -193.2699456376407 44.22598133465655
    vertex -171.00339707160708 -182.99088342486692 44.225981334656495
    vertex -171.00339707160708 -192.71595383139731 44.225981334656545
  endloop
endfacet
facet normal -3.5140503838830557e-15 -7.028989701938314e-15 -1.0
  outer loop
    vertex -171.00339707160708 -192.71595383139731 44.225981334656545
    vertex -171.00339707160708 -182.99088342486692 44.225981334656495
    vertex -170.13142030725467 -183.72616214336077 44.225981334656495
  endloop
endfacet
facet normal -3.5140503838830557e-15 -7.028989701938314e-15 -1.0
  outer loop
    vertex -171.00339707160708 -192.71595383139731 44.225981334656545
    vertex -170.13142030725467 -183.72616214336077 44.225981334656495
    vertex -170.13142030725464 -191.98067511290344 44.22598133465654
  endloop
endfacet
facet normal -3.5140503838830557e-15 -7.028989701938314e-15 -1.0
  outer loop
    vertex -170.13142030725464 -191.98067511290344 44.22598133465654
    vertex -170.13142030725467 -183.72616214336077 44.225981334656495
    vertex -169.4170074208224 -184.6153148294277 44.225981334656495
  endloop
endfacet
facet normal -3.5140503838830557e-15 -7.028989701938314e-15 -1.0
  outer loop
    vertex -170.13142030725464 -191.98067511290344 44.22598133465654
    vertex -169.4170074208224 -184.6153148294277 44.225981334656495
    vertex -169.41700742082236 -191.09152242683655 44.22598133465653
  endloop
endfacet
facet normal -3.5140503838830557e-15 -7.028989701938314e-15 -1.0
  outer loop
    vertex -169.41700742082236 -191.09152242683655 44.22598133465653
    vertex -169.4170074208224 -184.6153148294277 44.225981334656495
    vertex -168.88679342899175 -185.62519174980338 44.225981334656495
  endloop
endfacet
facet normal -3.5140503838830557e-15 -7.028989701938314e-15 -1.0
  outer loop
    vertex -169.41700742082236 -191.09152242683655 44.22598133465653
    vertex -168.88679342899175 -185.62519174980338 44.225981334656495
    vertex -168.88679342899175 -190.08164550646083 44.225981334656524
  endloop
endfacet
facet normal -3.5140503838830557e-15 -7.028989701938314e-15 -1.0
  outer loop
    vertex -168.88679342899175 -190.08164550646083 44.225981334656524
    vertex -168.88679342899175 -185.62519174980338 44.225981334656495
    vertex -168.56054597423582 -186.7181422837736 44.2259813346565
  endloop
endfacet
facet normal -3.5140503838830557e-15 -7.028989701938314e-15 -1.0
  outer loop
    vertex -168.88679342899175 -190.08164550646083 44.225981334656524
    vertex -168.56054597423582 -186.7181422837736 44.2259813346565
    vertex -168.56054597423582 -188.9886949724906 44.22598133465652
  endloop
endfacet
facet normal -3.5140503838830557e-15 -7.028989701938314e-15 -1.0
  outer loop
    vertex -168.56054597423582 -188.9886949724906 44.22598133465652
    vertex -168.56054597423582 -186.7181422837736 44.2259813346565
    vertex -168.45042833995103 -187.8534186281321 44.22598133465651
  endloop
endfacet
facet normal -1.2922459694742396e-14 1.0 4.9464234622969245e-15
  outer loop
    vertex -181.75042833995118 -182.4368916186237 46.625981334656494
    vertex -172.0004283399511 -182.43689161862355 44.225981334656495
    vertex -178.35042833995118 -182.4368916186236 44.22598133465648
  endloop
endfacet
facet normal -1.2922459694742396e-14 1.0 4.9464234622969245e-15
  outer loop
    vertex -172.0004283399511 -182.43689161862355 44.225981334656495
    vertex -181.75042833995118 -182.4368916186237 46.625981334656494
    vertex -172.0004283399511 -182.43689161862355 46.62598133465649
  endloop
endfacet
facet normal 4.874041857784776e-15 -1.0 -1.0647386096808597e-14
  outer loop
    vertex -172.0004283399511 -193.2699456376407 46.62598133465654
    vertex -178.35042833995112 -193.2699456376407 44.22598133465661
    vertex -172.0004283399511 -193.2699456376407 44.22598133465655
  endloop
endfacet
facet normal 4.874041857784776e-15 -1.0 -1.0647386096808597e-14
  outer loop
    vertex -178.35042833995112 -193.2699456376407 44.22598133465661
    vertex -172.0004283399511 -193.2699456376407 46.62598133465654
    vertex -181.75042833995116 -193.26994563764075 46.625981334656615
  endloop
endfacet
facet normal -0.5766831975986566 -1.1484339949821127e-14 -0.8169678632647607
  outer loop
    vertex -178.35042833995118 -182.4368916186236 44.22598133465648
    vertex -181.75042833995118 -184.1924659124588 46.62598133465654
    vertex -181.75042833995118 -182.4368916186237 46.625981334656494
  endloop
endfacet
facet normal -0.5766831975986566 -1.1484339949821127e-14 -0.8169678632647607
  outer loop
    vertex -181.75042833995118 -184.1924659124588 46.62598133465654
    vertex -178.35042833995118 -182.4368916186236 44.22598133465648
    vertex -181.75042833995116 -191.1924659124588 46.62598133465659
  endloop
endfacet
facet normal -0.5766831975986566 -1.1484339949821127e-14 -0.8169678632647607
  outer loop
    vertex -181.75042833995116 -191.1924659124588 46.62598133465659
    vertex -178.35042833995118 -182.4368916186236 44.22598133465648
    vertex -181.75042833995116 -193.26994563764075 46.625981334656615
  endloop
endfacet
facet normal -0.5766831975986566 -1.1484339949821127e-14 -0.8169678632647607
  outer loop
    vertex -181.75042833995116 -193.26994563764075 46.625981334656615
    vertex -178.35042833995118 -182.4368916186236 44.22598133465648
    vertex -178.35042833995112 -193.2699456376407 44.22598133465661
  endloop
endfacet
facet normal -5.5269672847272155e-15 -3.624507723672543e-15 -1.0
  outer loop
    vertex -181.75042833995116 -191.1924659124588 46.62598133465659
    vertex -190.6504283399511 -194.25341862813204 46.62598133465664
    vertex -190.6504283399511 -191.1924659124588 46.62598133465659
  endloop
endfacet
facet normal -5.5269672847272155e-15 -3.624507723672543e-15 -1.0
  outer loop
    vertex -190.6504283399511 -194.25341862813204 46.62598133465664
    vertex -181.75042833995116 -191.1924659124588 46.62598133465659
    vertex -181.75042833995116 -193.26994563764075 46.625981334656615
  endloop
endfacet
facet normal -5.5269672847272155e-15 -3.624507723672543e-15 -1.0
  outer loop
    vertex -190.6504283399511 -194.25341862813204 46.62598133465664
    vertex -181.75042833995116 -193.26994563764075 46.625981334656615
    vertex -168.45042833995103 -194.25341862813207 46.62598133465651
  endloop
endfacet
facet normal -5.5269672847272155e-15 -3.624507723672543e-15 -1.0
  outer loop
    vertex -168.45042833995103 -194.25341862813207 46.62598133465651
    vertex -181.75042833995116 -193.26994563764075 46.625981334656615
    vertex -172.0004283399511 -193.2699456376407 46.62598133465654
  endloop
endfacet
facet normal -5.5269672847272155e-15 -3.624507723672543e-15 -1.0
  outer loop
    vertex -168.45042833995103 -194.25341862813207 46.62598133465651
    vertex -172.0004283399511 -193.2699456376407 46.62598133465654
    vertex -171.00339707160708 -192.71595383139731 46.62598133465653
  endloop
endfacet
facet normal -5.5269672847272155e-15 -3.624507723672543e-15 -1.0
  outer loop
    vertex -168.45042833995103 -194.25341862813207 46.62598133465651
    vertex -171.00339707160708 -192.71595383139731 46.62598133465653
    vertex -170.13142030725464 -191.98067511290344 46.62598133465653
  endloop
endfacet
facet normal -5.5269672847272155e-15 -3.624507723672543e-15 -1.0
  outer loop
    vertex -168.45042833995103 -194.25341862813207 46.62598133465651
    vertex -170.13142030725464 -191.98067511290344 46.62598133465653
    vertex -169.41700742082236 -191.09152242683655 46.625981334656515
  endloop
endfacet
facet normal -5.5269672847272155e-15 -3.624507723672543e-15 -1.0
  outer loop
    vertex -168.45042833995103 -194.25341862813207 46.62598133465651
    vertex -169.41700742082236 -191.09152242683655 46.625981334656515
    vertex -168.88679342899175 -190.08164550646083 46.62598133465651
  endloop
endfacet
facet normal -5.5269672847272155e-15 -3.624507723672543e-15 -1.0
  outer loop
    vertex -168.45042833995103 -194.25341862813207 46.62598133465651
    vertex -168.88679342899175 -190.08164550646083 46.62598133465651
    vertex -168.56054597423582 -188.9886949724906 46.62598133465651
  endloop
endfacet
facet normal -5.5269672847272155e-15 -3.624507723672543e-15 -1.0
  outer loop
    vertex -168.45042833995103 -194.25341862813207 46.62598133465651
    vertex -168.56054597423582 -188.9886949724906 46.62598133465651
    vertex -168.45042833995103 -187.8534186281321 46.62598133465651
  endloop
endfacet
facet normal -1.5656434462347173e-15 -4.4593853325265686e-15 -1.0
  outer loop
    vertex -190.65042833995116 -181.45341862813225 46.625981334656494
    vertex -181.75042833995118 -182.4368916186237 46.625981334656494
    vertex -190.65042833995116 -184.1924659124588 46.62598133465654
  endloop
endfacet
facet normal -1.5656434462347173e-15 -4.4593853325265686e-15 -1.0
  outer loop
    vertex -181.75042833995118 -182.4368916186237 46.625981334656494
    vertex -190.65042833995116 -181.45341862813225 46.625981334656494
    vertex -168.45042833995103 -181.4534186281321 46.6259813346565
  endloop
endfacet
facet normal -1.5656434462347173e-15 -4.4593853325265686e-15 -1.0
  outer loop
    vertex -181.75042833995118 -182.4368916186237 46.625981334656494
    vertex -168.45042833995103 -181.4534186281321 46.6259813346565
    vertex -172.0004283399511 -182.43689161862355 46.62598133465649
  endloop
endfacet
facet normal -1.5656434462347173e-15 -4.4593853325265686e-15 -1.0
  outer loop
    vertex -172.0004283399511 -182.43689161862355 46.62598133465649
    vertex -168.45042833995103 -181.4534186281321 46.6259813346565
    vertex -171.00339707160708 -182.99088342486692 46.62598133465649
  endloop
endfacet
facet normal -1.5656434462347173e-15 -4.4593853325265686e-15 -1.0
  outer loop
    vertex -171.00339707160708 -182.99088342486692 46.62598133465649
    vertex -168.45042833995103 -181.4534186281321 46.6259813346565
    vertex -170.13142030725467 -183.72616214336077 46.62598133465649
  endloop
endfacet
facet normal -1.5656434462347173e-15 -4.4593853325265686e-15 -1.0
  outer loop
    vertex -170.13142030725467 -183.72616214336077 46.62598133465649
    vertex -168.45042833995103 -181.4534186281321 46.6259813346565
    vertex -169.4170074208224 -184.6153148294277 46.62598133465649
  endloop
endfacet
facet normal -1.5656434462347173e-15 -4.4593853325265686e-15 -1.0
  outer loop
    vertex -169.4170074208224 -184.6153148294277 46.62598133465649
    vertex -168.45042833995103 -181.4534186281321 46.6259813346565
    vertex -168.88679342899175 -185.62519174980338 46.625981334656494
  endloop
endfacet
facet normal -1.5656434462347173e-15 -4.4593853325265686e-15 -1.0
  outer loop
    vertex -168.88679342899175 -185.62519174980338 46.625981334656494
    vertex -168.45042833995103 -181.4534186281321 46.6259813346565
    vertex -168.56054597423582 -186.7181422837736 46.6259813346565
  endloop
endfacet
facet normal -1.5656434462347173e-15 -4.4593853325265686e-15 -1.0
  outer loop
    vertex -168.56054597423582 -186.7181422837736 46.6259813346565
    vertex -168.45042833995103 -181.4534186281321 46.6259813346565
    vertex -168.45042833995103 -187.8534186281321 46.62598133465651
  endloop
endfacet
facet normal -1.5656434462347173e-15 -4.4593853325265686e-15 -1.0
  outer loop
    vertex -181.75042833995118 -184.1924659124588 46.62598133465654
    vertex -190.65042833995116 -184.1924659124588 46.62598133465654
    vertex -181.75042833995118 -182.4368916186237 46.625981334656494
  endloop
endfacet
facet normal 0.9953287917114779 0.09654323585922198 5.881818127065978e-19
  outer loop
    vertex -168.56054597423582 -186.7181422837736 44.2259813346565
    vertex -168.45042833995103 -187.8534186281321 46.62598133465651
    vertex -168.45042833995103 -187.8534186281321 44.22598133465651
  endloop
endfacet
facet normal 0.9953287917114779 0.09654323585922198 5.881818127065978e-19
  outer loop
    vertex -168.45042833995103 -187.8534186281321 46.62598133465651
    vertex -168.56054597423582 -186.7181422837736 44.2259813346565
    vertex -168.56054597423582 -186.7181422837736 46.6259813346565
  endloop
endfacet
facet normal 0.9582205599392445 0.28603034543509687 2.743929241146951e-15
  outer loop
    vertex -168.88679342899175 -185.62519174980338 44.225981334656495
    vertex -168.56054597423582 -186.7181422837736 46.6259813346565
    vertex -168.56054597423582 -186.7181422837736 44.2259813346565
  endloop
endfacet
facet normal 0.9582205599392445 0.28603034543509687 2.743929241146951e-15
  outer loop
    vertex -168.56054597423582 -186.7181422837736 46.6259813346565
    vertex -168.88679342899175 -185.62519174980338 44.225981334656495
    vertex -168.88679342899175 -185.62519174980338 46.625981334656494
  endloop
endfacet
facet normal 0.8853875797991898 0.46485356139039463 2.3627007525251913e-15
  outer loop
    vertex -169.4170074208224 -184.6153148294277 44.225981334656495
    vertex -168.88679342899175 -185.62519174980338 46.625981334656494
    vertex -168.88679342899175 -185.62519174980338 44.225981334656495
  endloop
endfacet
facet normal 0.8853875797991898 0.46485356139039463 2.3627007525251913e-15
  outer loop
    vertex -168.88679342899175 -185.62519174980338 46.625981334656494
    vertex -169.4170074208224 -184.6153148294277 44.225981334656495
    vertex -169.4170074208224 -184.6153148294277 46.62598133465649
  endloop
endfacet
facet normal 0.779545238538437 0.6263459276406699 1.893385143483327e-15
  outer loop
    vertex -170.13142030725467 -183.72616214336077 44.225981334656495
    vertex -169.4170074208224 -184.6153148294277 46.62598133465649
    vertex -169.4170074208224 -184.6153148294277 44.225981334656495
  endloop
endfacet
facet normal 0.779545238538437 0.6263459276406699 1.893385143483327e-15
  outer loop
    vertex -169.4170074208224 -184.6153148294277 46.62598133465649
    vertex -170.13142030725467 -183.72616214336077 44.225981334656495
    vertex -170.13142030725467 -183.72616214336077 46.62598133465649
  endloop
endfacet
facet normal 0.6446395911324959 0.7644866235223011 1.3534796195072198e-15
  outer loop
    vertex -171.00339707160708 -182.99088342486692 46.62598133465649
    vertex -170.13142030725467 -183.72616214336077 44.225981334656495
    vertex -171.00339707160708 -182.99088342486692 44.225981334656495
  endloop
endfacet
facet normal 0.6446395911324959 0.7644866235223011 1.3534796195072198e-15
  outer loop
    vertex -170.13142030725467 -183.72616214336077 44.225981334656495
    vertex -171.00339707160708 -182.99088342486692 46.62598133465649
    vertex -170.13142030725467 -183.72616214336077 46.62598133465649
  endloop
endfacet
facet normal 0.4857002419422701 0.8741254343497964 0.0
  outer loop
    vertex -172.0004283399511 -182.43689161862355 46.62598133465649
    vertex -171.00339707160708 -182.99088342486692 44.225981334656495
    vertex -172.0004283399511 -182.43689161862355 44.225981334656495
  endloop
endfacet
facet normal 0.4857002419422701 0.8741254343497964 0.0
  outer loop
    vertex -171.00339707160708 -182.99088342486692 44.225981334656495
    vertex -172.0004283399511 -182.43689161862355 46.62598133465649
    vertex -171.00339707160708 -182.99088342486692 46.62598133465649
  endloop
endfacet
facet normal 0.4857002419422785 -0.8741254343497917 9.581477736235338e-18
  outer loop
    vertex -171.00339707160708 -192.71595383139731 46.62598133465653
    vertex -172.0004283399511 -193.2699456376407 44.22598133465655
    vertex -171.00339707160708 -192.71595383139731 44.225981334656545
  endloop
endfacet
facet normal 0.4857002419422785 -0.8741254343497917 9.581477736235338e-18
  outer loop
    vertex -172.0004283399511 -193.2699456376407 44.22598133465655
    vertex -171.00339707160708 -192.71595383139731 46.62598133465653
    vertex -172.0004283399511 -193.2699456376407 46.62598133465654
  endloop
endfacet
facet normal 0.6446395911324977 -0.7644866235222996 -8.183414759800608e-15
  outer loop
    vertex -170.13142030725464 -191.98067511290344 46.62598133465653
    vertex -171.00339707160708 -192.71595383139731 44.225981334656545
    vertex -170.13142030725464 -191.98067511290344 44.22598133465654
  endloop
endfacet
facet normal 0.6446395911324977 -0.7644866235222996 -8.183414759800608e-15
  outer loop
    vertex -171.00339707160708 -192.71595383139731 44.225981334656545
    vertex -170.13142030725464 -191.98067511290344 46.62598133465653
    vertex -171.00339707160708 -192.71595383139731 46.62598133465653
  endloop
endfacet
facet normal 0.7795452385384294 -0.6263459276406796 -9.840483834054045e-15
  outer loop
    vertex -169.41700742082236 -191.09152242683655 44.22598133465653
    vertex -170.13142030725464 -191.98067511290344 46.62598133465653
    vertex -170.13142030725464 -191.98067511290344 44.22598133465654
  endloop
endfacet
facet normal 0.7795452385384294 -0.6263459276406796 -9.840483834054045e-15
  outer loop
    vertex -170.13142030725464 -191.98067511290344 46.62598133465653
    vertex -169.41700742082236 -191.09152242683655 44.22598133465653
    vertex -169.41700742082236 -191.09152242683655 46.625981334656515
  endloop
endfacet
facet normal 0.8853875797992021 -0.46485356139037093 -1.1130676195902925e-14
  outer loop
    vertex -168.88679342899175 -190.08164550646083 44.225981334656524
    vertex -169.41700742082236 -191.09152242683655 46.625981334656515
    vertex -169.41700742082236 -191.09152242683655 44.22598133465653
  endloop
endfacet
facet normal 0.8853875797992021 -0.46485356139037093 -1.1130676195902925e-14
  outer loop
    vertex -169.41700742082236 -191.09152242683655 46.625981334656515
    vertex -168.88679342899175 -190.08164550646083 44.225981334656524
    vertex -168.88679342899175 -190.08164550646083 46.62598133465651
  endloop
endfacet
facet normal 0.9582205599392445 -0.28603034543509687 -1.2005890396264836e-14
  outer loop
    vertex -168.56054597423582 -188.9886949724906 44.22598133465652
    vertex -168.88679342899175 -190.08164550646083 46.62598133465651
    vertex -168.88679342899175 -190.08164550646083 44.225981334656524
  endloop
endfacet
facet normal 0.9582205599392445 -0.28603034543509687 -1.2005890396264836e-14
  outer loop
    vertex -168.88679342899175 -190.08164550646083 46.62598133465651
    vertex -168.56054597423582 -188.9886949724906 44.22598133465652
    vertex -168.56054597423582 -188.9886949724906 46.62598133465651
  endloop
endfacet
facet normal 0.9953287917114781 -0.09654323585922008 4.613522780376298e-19
  outer loop
    vertex -168.45042833995103 -187.8534186281321 44.22598133465651
    vertex -168.56054597423582 -188.9886949724906 46.62598133465651
    vertex -168.56054597423582 -188.9886949724906 44.22598133465652
  endloop
endfacet
facet normal 0.9953287917114781 -0.09654323585922008 4.613522780376298e-19
  outer loop
    vertex -168.56054597423582 -188.9886949724906 46.62598133465651
    vertex -168.45042833995103 -187.8534186281321 44.22598133465651
    vertex -168.45042833995103 -187.8534186281321 46.62598133465651
  endloop
endfacet
facet normal 4.330802840880768e-17 1.0 -7.929176711325767e-15
  outer loop
    vertex -190.6504283399511 -191.1924659124588 46.62598133465659
    vertex -186.35042833995112 -191.1924659124588 47.7759813346565
    vertex -181.75042833995116 -191.1924659124588 46.62598133465659
  endloop
endfacet
facet normal 4.330802840880768e-17 1.0 -7.929176711325767e-15
  outer loop
    vertex -186.35042833995112 -191.1924659124588 47.7759813346565
    vertex -190.6504283399511 -191.1924659124588 46.62598133465659
    vertex -190.65042833995108 -191.19246591245877 49.775981334656656
  endloop
endfacet
facet normal 4.330802840880768e-17 1.0 -7.929176711325767e-15
  outer loop
    vertex -186.35042833995112 -191.1924659124588 47.7759813346565
    vertex -190.65042833995108 -191.19246591245877 49.775981334656656
    vertex -168.45042833995103 -191.1924659124588 47.77598133465664
  endloop
endfacet
facet normal 4.330802840880768e-17 1.0 -7.929176711325767e-15
  outer loop
    vertex -168.45042833995103 -191.1924659124588 47.77598133465664
    vertex -190.65042833995108 -191.19246591245877 49.775981334656656
    vertex -168.45042833995103 -191.19246591245877 49.77598133465664
  endloop
endfacet
facet normal 0.0 -1.0 0.0
  outer loop
    vertex -186.35042833995112 -184.1924659124588 47.77598133465649
    vertex -190.65042833995116 -184.1924659124588 46.62598133465654
    vertex -181.75042833995118 -184.1924659124588 46.62598133465654
  endloop
endfacet
facet normal 0.0 -1.0 0.0
  outer loop
    vertex -190.65042833995116 -184.1924659124588 46.62598133465654
    vertex -186.35042833995112 -184.1924659124588 47.77598133465649
    vertex -190.65042833995108 -184.1924659124588 49.77598133465665
  endloop
endfacet
facet normal 0.0 -1.0 0.0
  outer loop
    vertex -190.65042833995108 -184.1924659124588 49.77598133465665
    vertex -186.35042833995112 -184.1924659124588 47.77598133465649
    vertex -168.45042833995103 -184.1924659124588 47.775981334656635
  endloop
endfacet
facet normal 0.0 -1.0 0.0
  outer loop
    vertex -190.65042833995108 -184.1924659124588 49.77598133465665
    vertex -168.45042833995103 -184.1924659124588 47.775981334656635
    vertex -168.45042833995103 -184.1924659124588 49.77598133465663
  endloop
endfacet
facet normal -8.500324546732705e-15 2.9542506007644505e-15 1.0
  outer loop
    vertex -168.45042833995103 -191.1924659124588 47.77598133465664
    vertex -186.35042833995112 -184.1924659124588 47.77598133465649
    vertex -186.35042833995112 -191.1924659124588 47.7759813346565
  endloop
endfacet
facet normal -8.500324546732705e-15 2.9542506007644505e-15 1.0
  outer loop
    vertex -186.35042833995112 -184.1924659124588 47.77598133465649
    vertex -168.45042833995103 -191.1924659124588 47.77598133465664
    vertex -168.45042833995103 -184.1924659124588 47.775981334656635
  endloop
endfacet
facet normal -1.0 -3.750785750288291e-15 5.727320741277659e-15
  outer loop
    vertex -190.65042833995108 -194.25341862813207 51.92598133465653
    vertex -190.65042833995108 -191.19246591245877 49.775981334656656
    vertex -190.6504283399511 -194.25341862813204 46.62598133465664
  endloop
endfacet
facet normal -1.0 -3.750785750288291e-15 5.727320741277659e-15
  outer loop
    vertex -190.65042833995108 -191.19246591245877 49.775981334656656
    vertex -190.65042833995108 -194.25341862813207 51.92598133465653
    vertex -190.65042833995116 -181.4534186281321 51.925981334656555
  endloop
endfacet
facet normal -1.0 -3.750785750288291e-15 5.727320741277659e-15
  outer loop
    vertex -190.6504283399511 -194.25341862813204 46.62598133465664
    vertex -190.65042833995108 -191.19246591245877 49.775981334656656
    vertex -190.6504283399511 -191.1924659124588 46.62598133465659
  endloop
endfacet
facet normal -1.0 -3.750785750288291e-15 5.727320741277659e-15
  outer loop
    vertex -190.65042833995108 -191.19246591245877 49.775981334656656
    vertex -190.65042833995116 -181.4534186281321 51.925981334656555
    vertex -190.65042833995108 -184.1924659124588 49.77598133465665
  endloop
endfacet
facet normal -1.0 -3.750785750288291e-15 5.727320741277659e-15
  outer loop
    vertex -190.65042833995108 -184.1924659124588 49.77598133465665
    vertex -190.65042833995116 -181.4534186281321 51.925981334656555
    vertex -190.65042833995116 -184.1924659124588 46.62598133465654
  endloop
endfacet
facet normal -1.0 -3.750785750288291e-15 5.727320741277659e-15
  outer loop
    vertex -190.65042833995116 -184.1924659124588 46.62598133465654
    vertex -190.65042833995116 -181.4534186281321 51.925981334656555
    vertex -190.65042833995116 -181.45341862813225 46.625981334656494
  endloop
endfacet
facet normal -0.24253562503632184 -5.467569359225044e-15 -0.9701425001453348
  outer loop
    vertex -181.75042833995118 -184.1924659124588 46.62598133465654
    vertex -186.35042833995112 -191.1924659124588 47.7759813346565
    vertex -186.35042833995112 -184.1924659124588 47.77598133465649
  endloop
endfacet
facet normal -0.24253562503632184 -5.467569359225044e-15 -0.9701425001453348
  outer loop
    vertex -186.35042833995112 -191.1924659124588 47.7759813346565
    vertex -181.75042833995118 -184.1924659124588 46.62598133465654
    vertex -181.75042833995116 -191.1924659124588 46.62598133465659
  endloop
endfacet
endsolid CatFlap
